<?xml version="1.0" encoding="UTF-8"?>
<svg id="Layer_2" data-name="Layer 2" xmlns="http://www.w3.org/2000/svg" viewBox="0 0 72 72">
  <defs>
    <style>
      .cls-1 {
        fill: currentColor;
      }
    </style>
  </defs>
  <path class="cls-1" d="M36,22.49c-7.46,0-13.51,6.05-13.51,13.51s6.05,13.51,13.51,13.51,13.51-6.05,13.51-13.51-6.05-13.51-13.51-13.51ZM36,44.96c-4.95,0-8.96-4.01-8.96-8.96s4.01-8.96,8.96-8.96,8.96,4.01,8.96,8.96-4.01,8.96-8.96,8.96Z"/>
  <circle class="cls-1" cx="50.06" cy="21.98" r="3.23"/>
  <path class="cls-1" d="M47.66,9.64h-23.32c-8.12,0-14.7,6.58-14.7,14.7v23.32c0,8.12,6.58,14.7,14.7,14.7h23.32c8.12,0,14.7-6.58,14.7-14.7v-23.32c0-8.12-6.58-14.7-14.7-14.7ZM57.64,47.36c0,5.68-4.6,10.28-10.28,10.28h-22.72c-5.68,0-10.28-4.6-10.28-10.28v-22.72c0-5.68,4.6-10.28,10.28-10.28h22.72c5.68,0,10.28,4.6,10.28,10.28v22.72Z"/>
</svg>